<?xml version="1.0" standalone="yes"?>
<svg xmlns="http://www.w3.org/2000/svg" width="64" height="64">
<path style="fill:#ffffff; stroke:none;" d="M8 39L4 39L4 48C10.0061 49.239 16.9555 51.4541 22.9954 49.1065C29.5175 46.5715 32.1373 37.8028 27.3472 32.3935C23.5676 28.1253 11.0038 28.2365 10.0602 21.8997C8.74053 13.0376 22.1156 16.3656 24 23L28 23C27.9981 20.5495 28.6099 16.7998 26.9722 14.7384C22.1444 8.66141 6.19856 11.5825 4.3179 19.0046C0.199203 35.2593 21.7254 29.2003 23.0787 40.0139C24.2279 49.197 9.95832 45.8945 8 39M38 22L45 19L45 46L39 46L39 49L57 49L57 46L51 46L51 13C44.8967 13.1812 39.0621 15.4312 38 22z"/>
</svg>
