<?xml version="1.0" standalone="yes"?>
<svg xmlns="http://www.w3.org/2000/svg" width="64" height="64">
<path style="fill:#ffffff; stroke:none;" d="M8 38L4 38L4 47C10.0061 48.239 16.9555 50.4541 22.9954 48.1065C29.5175 45.5715 32.1373 36.8028 27.3472 31.3935C23.5676 27.1253 11.0038 27.2365 10.0602 20.8997C8.74053 12.0376 22.1156 15.3656 24 22L28 22C27.9981 19.5495 28.6099 15.7998 26.9722 13.7384C22.1444 7.66141 6.19856 10.5825 4.3179 18.0046C0.199203 34.2593 21.7254 28.2003 23.0787 39.0139C24.2279 48.197 9.95832 44.8945 8 38M36 21L40 21C43.06 12.2671 54.3928 14.8415 52.3179 24C50.0433 34.0401 37.5621 37.8765 36 48L59 48L59 39L56 39L56 44L43 44C49.0888 37.9112 61.9064 28.1161 58.1026 18.0046C53.9489 6.96295 36.1423 8.98721 36 21z"/>
</svg>
